<svg xmlns="http://www.w3.org/2000/svg" xmlns:xlink="http://www.w3.org/1999/xlink" width="500" zoomAndPan="magnify" viewBox="0 0 375 374.999991" height="500" preserveAspectRatio="xMidYMid meet" version="1.0"><defs><clipPath id="509a5bd750"><path d="M 194 11 L 320.789062 11 L 320.789062 364 L 194 364 Z M 194 11 " clip-rule="nonzero"/></clipPath><clipPath id="2641cd7a0b"><path d="M 194.265625 11 L 320.789062 11 L 320.789062 364 L 194.265625 364 Z M 194.265625 11 " clip-rule="nonzero"/></clipPath><clipPath id="dba536de0d"><path d="M 232.222656 231.253906 L 232.222656 99.257812 C 232.222656 96.375 232.363281 93.5 232.648438 90.632812 C 232.929688 87.765625 233.351562 84.917969 233.914062 82.089844 C 234.476562 79.265625 235.179688 76.472656 236.015625 73.714844 C 236.855469 70.957031 237.824219 68.246094 238.929688 65.582031 C 240.03125 62.921875 241.265625 60.316406 242.625 57.777344 C 243.984375 55.234375 245.464844 52.765625 247.070312 50.371094 C 248.671875 47.972656 250.386719 45.660156 252.21875 43.433594 C 254.050781 41.207031 255.984375 39.074219 258.023438 37.035156 C 260.066406 34.996094 262.199219 33.0625 264.429688 31.234375 C 266.660156 29.40625 268.976562 27.691406 271.375 26.089844 C 273.773438 24.488281 276.242188 23.007812 278.789062 21.652344 C 281.332031 20.292969 283.9375 19.0625 286.601562 17.957031 C 289.269531 16.855469 291.980469 15.886719 294.742188 15.050781 C 297.503906 14.214844 300.300781 13.511719 303.128906 12.953125 C 305.957031 12.390625 308.808594 11.964844 311.679688 11.683594 C 314.550781 11.402344 317.429688 11.261719 320.316406 11.261719 L 320.316406 231.253906 C 320.316406 235.441406 320.117188 239.617188 319.71875 243.785156 C 319.320312 247.949219 318.726562 252.089844 317.933594 256.199219 C 317.140625 260.308594 316.15625 264.375 314.976562 268.390625 C 313.796875 272.40625 312.429688 276.359375 310.875 280.246094 C 309.320312 284.132812 307.582031 287.9375 305.667969 291.660156 C 303.75 295.382812 301.660156 299.003906 299.394531 302.527344 C 297.132812 306.050781 294.707031 309.457031 292.121094 312.75 C 289.535156 316.042969 286.796875 319.207031 283.910156 322.238281 C 281.019531 325.273438 277.996094 328.160156 274.832031 330.90625 C 271.667969 333.652344 268.382812 336.238281 264.972656 338.671875 C 261.5625 341.105469 258.042969 343.371094 254.417969 345.46875 C 250.792969 347.566406 247.074219 349.488281 243.265625 351.234375 C 239.457031 352.980469 235.574219 354.539062 231.617188 355.917969 C 227.660156 357.292969 223.644531 358.480469 219.574219 359.472656 C 215.503906 360.46875 211.398438 361.269531 207.25 361.871094 C 203.105469 362.476562 198.9375 362.882812 194.753906 363.09375 L 194.753906 274.761719 C 197.339844 274.371094 199.867188 273.753906 202.34375 272.914062 C 204.820312 272.074219 207.203125 271.023438 209.492188 269.757812 C 211.777344 268.496094 213.9375 267.039062 215.964844 265.390625 C 217.996094 263.746094 219.859375 261.929688 221.566406 259.949219 C 223.273438 257.96875 224.789062 255.855469 226.117188 253.605469 C 227.445312 251.355469 228.5625 249.007812 229.472656 246.558594 C 230.382812 244.109375 231.066406 241.601562 231.53125 239.027344 C 231.992188 236.457031 232.222656 233.867188 232.222656 231.253906 " clip-rule="evenodd"/></clipPath><clipPath id="4842973065"><path d="M 55.234375 99 L 220 99 L 220 364 L 55.234375 364 Z M 55.234375 99 " clip-rule="nonzero"/></clipPath><clipPath id="3a1793bda5"><path d="M 181.609375 363.09375 C 177.351562 362.882812 173.117188 362.46875 168.902344 361.851562 C 164.6875 361.230469 160.511719 360.410156 156.375 359.390625 C 152.238281 358.367188 148.160156 357.148438 144.144531 355.730469 C 140.125 354.316406 136.1875 352.710938 132.324219 350.914062 C 128.460938 349.117188 124.695312 347.136719 121.023438 344.976562 C 117.355469 342.816406 113.796875 340.484375 110.351562 337.980469 C 106.90625 335.476562 103.589844 332.8125 100.402344 329.988281 C 97.214844 327.160156 94.171875 324.191406 91.273438 321.070312 C 88.375 317.953125 85.632812 314.699219 83.050781 311.316406 C 80.464844 307.933594 78.050781 304.433594 75.804688 300.816406 C 73.558594 297.199219 71.496094 293.480469 69.609375 289.664062 C 67.722656 285.847656 66.027344 281.949219 64.519531 277.96875 C 63.011719 273.988281 61.699219 269.945312 60.582031 265.839844 C 59.46875 261.730469 58.550781 257.578125 57.835938 253.382812 C 57.125 249.1875 56.613281 244.96875 56.308594 240.722656 C 56.003906 236.476562 55.902344 232.226562 56.007812 227.972656 C 56.113281 223.71875 56.425781 219.476562 56.941406 215.253906 C 57.457031 211.027344 58.179688 206.839844 59.101562 202.683594 C 60.023438 198.527344 61.144531 194.429688 62.460938 190.382812 C 63.78125 186.335938 65.292969 182.359375 66.996094 178.460938 C 68.703125 174.558594 70.589844 170.75 72.664062 167.03125 C 74.734375 163.3125 76.984375 159.703125 79.40625 156.203125 C 81.828125 152.703125 84.414062 149.324219 87.164062 146.074219 C 89.914062 142.824219 92.8125 139.710938 95.863281 136.742188 C 98.914062 133.769531 102.101562 130.953125 105.425781 128.289062 C 108.75 125.625 112.195312 123.128906 115.757812 120.800781 C 119.324219 118.46875 122.992188 116.316406 126.765625 114.339844 C 130.539062 112.367188 134.402344 110.578125 138.347656 108.972656 C 142.296875 107.371094 146.308594 105.960938 150.394531 104.746094 C 154.476562 103.535156 158.609375 102.519531 162.789062 101.703125 C 166.972656 100.886719 171.183594 100.277344 175.425781 99.867188 C 179.664062 99.457031 183.917969 99.257812 188.175781 99.257812 L 219.085938 99.257812 L 219.085938 187.257812 L 188.175781 187.257812 C 185.425781 187.257812 182.699219 187.519531 179.996094 188.03125 C 177.292969 188.546875 174.660156 189.304688 172.101562 190.3125 C 169.542969 191.316406 167.097656 192.550781 164.769531 194.015625 C 162.441406 195.480469 160.265625 197.148438 158.25 199.019531 C 156.234375 200.886719 154.410156 202.929688 152.777344 205.140625 C 151.144531 207.355469 149.734375 209.699219 148.539062 212.175781 C 147.347656 214.652344 146.394531 217.214844 145.683594 219.871094 C 144.96875 222.527344 144.511719 225.222656 144.304688 227.964844 C 144.101562 230.703125 144.152344 233.441406 144.457031 236.171875 C 144.765625 238.902344 145.324219 241.582031 146.132812 244.207031 C 146.945312 246.835938 147.992188 249.363281 149.277344 251.792969 C 150.558594 254.222656 152.058594 256.515625 153.773438 258.664062 C 155.488281 260.8125 157.386719 262.785156 159.46875 264.582031 C 161.554688 266.375 163.785156 267.960938 166.167969 269.335938 C 168.550781 270.714844 171.039062 271.859375 173.632812 272.769531 C 176.230469 273.679688 178.886719 274.339844 181.609375 274.753906 Z M 181.609375 363.09375 " clip-rule="evenodd"/></clipPath></defs><g clip-path="url(#509a5bd750)"><path fill="#000000" d="M 232.222656 231.253906 L 232.222656 99.257812 C 232.222656 97.816406 232.257812 96.378906 232.328125 94.941406 C 232.398438 93.503906 232.503906 92.066406 232.648438 90.632812 C 232.789062 89.199219 232.964844 87.769531 233.175781 86.347656 C 233.386719 84.921875 233.632812 83.503906 233.914062 82.089844 C 234.195312 80.679688 234.511719 79.273438 234.863281 77.875 C 235.214844 76.480469 235.597656 75.09375 236.015625 73.714844 C 236.433594 72.335938 236.886719 70.96875 237.371094 69.613281 C 237.859375 68.257812 238.375 66.914062 238.929688 65.582031 C 239.480469 64.253906 240.0625 62.9375 240.679688 61.632812 C 241.296875 60.332031 241.945312 59.046875 242.625 57.777344 C 243.304688 56.507812 244.015625 55.253906 244.753906 54.019531 C 245.496094 52.78125 246.269531 51.566406 247.070312 50.371094 C 247.871094 49.171875 248.699219 47.996094 249.558594 46.839844 C 250.417969 45.679688 251.304688 44.546875 252.21875 43.433594 C 253.132812 42.320312 254.074219 41.230469 255.042969 40.164062 C 256.011719 39.09375 257.003906 38.054688 258.023438 37.035156 C 259.042969 36.015625 260.085938 35.023438 261.15625 34.054688 C 262.222656 33.089844 263.316406 32.148438 264.429688 31.234375 C 265.542969 30.320312 266.679688 29.4375 267.839844 28.578125 C 268.996094 27.71875 270.175781 26.890625 271.375 26.089844 C 272.570312 25.289062 273.789062 24.519531 275.027344 23.78125 C 276.261719 23.039062 277.515625 22.328125 278.789062 21.652344 C 280.058594 20.972656 281.347656 20.324219 282.652344 19.710938 C 283.953125 19.09375 285.273438 18.511719 286.601562 17.957031 C 287.933594 17.40625 289.28125 16.890625 290.636719 16.40625 C 291.996094 15.917969 293.363281 15.46875 294.742188 15.050781 C 296.121094 14.632812 297.511719 14.246094 298.910156 13.898438 C 300.308594 13.546875 301.714844 13.230469 303.128906 12.953125 C 304.542969 12.671875 305.964844 12.425781 307.390625 12.210938 C 308.816406 12 310.246094 11.824219 311.679688 11.683594 C 313.113281 11.542969 314.550781 11.4375 315.992188 11.367188 C 317.433594 11.296875 318.875 11.261719 320.316406 11.261719 L 320.316406 231.253906 C 320.316406 233.347656 320.265625 235.4375 320.164062 237.527344 C 320.066406 239.617188 319.917969 241.703125 319.71875 243.785156 C 319.519531 245.867188 319.269531 247.941406 318.972656 250.011719 C 318.675781 252.082031 318.328125 254.144531 317.933594 256.199219 C 317.539062 258.253906 317.09375 260.296875 316.601562 262.332031 C 316.105469 264.363281 315.566406 266.382812 314.976562 268.390625 C 314.386719 270.398438 313.75 272.390625 313.066406 274.367188 C 312.382812 276.34375 311.652344 278.304688 310.875 280.246094 C 310.097656 282.1875 309.277344 284.113281 308.40625 286.015625 C 307.539062 287.917969 306.625 289.800781 305.667969 291.660156 C 304.707031 293.519531 303.707031 295.355469 302.660156 297.167969 C 301.613281 298.980469 300.527344 300.765625 299.394531 302.527344 C 298.265625 304.289062 297.09375 306.019531 295.878906 307.726562 C 294.667969 309.429688 293.414062 311.105469 292.121094 312.75 C 290.828125 314.394531 289.496094 316.011719 288.128906 317.59375 C 286.757812 319.175781 285.351562 320.722656 283.910156 322.238281 C 282.464844 323.753906 280.988281 325.234375 279.472656 326.679688 C 277.960938 328.125 276.410156 329.535156 274.832031 330.90625 C 273.25 332.277344 271.636719 333.609375 269.992188 334.90625 C 268.347656 336.203125 266.675781 337.457031 264.972656 338.671875 C 263.265625 339.886719 261.535156 341.0625 259.773438 342.195312 C 258.015625 343.328125 256.230469 344.421875 254.417969 345.46875 C 252.605469 346.519531 250.769531 347.523438 248.910156 348.484375 C 247.050781 349.445312 245.167969 350.363281 243.265625 351.234375 C 241.363281 352.105469 239.441406 352.933594 237.496094 353.714844 C 235.554688 354.496094 233.59375 355.230469 231.617188 355.917969 C 229.640625 356.605469 227.648438 357.246094 225.636719 357.839844 C 223.628906 358.429688 221.609375 358.976562 219.574219 359.472656 C 217.542969 359.972656 215.496094 360.417969 213.441406 360.820312 C 211.386719 361.21875 209.324219 361.570312 207.25 361.871094 C 205.179688 362.175781 203.101562 362.425781 201.015625 362.628906 C 198.933594 362.832031 196.84375 362.988281 194.753906 363.09375 L 194.753906 274.761719 C 196.042969 274.566406 197.320312 274.316406 198.589844 274.007812 C 199.859375 273.699219 201.109375 273.335938 202.34375 272.914062 C 203.582031 272.496094 204.792969 272.023438 205.988281 271.496094 C 207.179688 270.96875 208.347656 270.390625 209.492188 269.757812 C 210.632812 269.128906 211.742188 268.449219 212.824219 267.71875 C 213.90625 266.992188 214.953125 266.214844 215.964844 265.390625 C 216.976562 264.570312 217.953125 263.703125 218.886719 262.796875 C 219.824219 261.886719 220.714844 260.9375 221.566406 259.949219 C 222.417969 258.960938 223.222656 257.9375 223.984375 256.878906 C 224.742188 255.820312 225.453125 254.730469 226.117188 253.605469 C 226.777344 252.484375 227.390625 251.332031 227.953125 250.15625 C 228.511719 248.980469 229.019531 247.78125 229.472656 246.558594 C 229.925781 245.335938 230.324219 244.097656 230.667969 242.839844 C 231.011719 241.582031 231.300781 240.3125 231.53125 239.027344 C 231.761719 237.746094 231.933594 236.457031 232.050781 235.15625 C 232.164062 233.859375 232.222656 232.558594 232.222656 231.253906 " fill-opacity="1" fill-rule="evenodd"/></g><g clip-path="url(#2641cd7a0b)"><g clip-path="url(#dba536de0d)"><path fill="#000000" d="M 125.203125 348.789062 L 199.855469 -13.511719 L 389.867188 25.558594 L 315.210938 387.855469 Z M 125.203125 348.789062 " fill-opacity="1" fill-rule="nonzero"/></g></g><path fill="#d9d9d9" d="M 181.609375 363.09375 C 179.480469 362.988281 177.359375 362.832031 175.238281 362.625 C 173.121094 362.417969 171.007812 362.160156 168.902344 361.851562 C 166.796875 361.542969 164.699219 361.179688 162.609375 360.769531 C 160.519531 360.359375 158.441406 359.898438 156.375 359.390625 C 154.308594 358.878906 152.253906 358.316406 150.214844 357.707031 C 148.175781 357.097656 146.152344 356.441406 144.144531 355.730469 C 142.136719 355.023438 140.148438 354.269531 138.175781 353.464844 C 136.203125 352.660156 134.253906 351.8125 132.324219 350.914062 C 130.394531 350.015625 128.488281 349.070312 126.601562 348.082031 C 124.71875 347.09375 122.859375 346.058594 121.023438 344.976562 C 119.191406 343.898438 117.382812 342.773438 115.601562 341.609375 C 113.824219 340.441406 112.074219 339.230469 110.351562 337.980469 C 108.628906 336.730469 106.9375 335.4375 105.28125 334.101562 C 103.621094 332.769531 101.996094 331.398438 100.402344 329.988281 C 98.8125 328.574219 97.253906 327.125 95.730469 325.640625 C 94.207031 324.152344 92.722656 322.628906 91.273438 321.070312 C 89.824219 319.511719 88.414062 317.921875 87.042969 316.292969 C 85.671875 314.667969 84.339844 313.007812 83.050781 311.316406 C 81.757812 309.625 80.507812 307.90625 79.300781 306.152344 C 78.09375 304.402344 76.925781 302.625 75.804688 300.816406 C 74.683594 299.007812 73.605469 297.175781 72.574219 295.316406 C 71.539062 293.457031 70.550781 291.574219 69.609375 289.664062 C 68.667969 287.757812 67.773438 285.828125 66.921875 283.878906 C 66.074219 281.929688 65.273438 279.960938 64.519531 277.96875 C 63.765625 275.980469 63.0625 273.976562 62.40625 271.953125 C 61.75 269.929688 61.140625 267.890625 60.582031 265.839844 C 60.027344 263.785156 59.519531 261.722656 59.058594 259.644531 C 58.601562 257.566406 58.195312 255.480469 57.835938 253.382812 C 57.480469 251.285156 57.175781 249.183594 56.917969 247.070312 C 56.664062 244.960938 56.460938 242.84375 56.308594 240.722656 C 56.15625 238.601562 56.054688 236.476562 56.003906 234.351562 C 55.953125 232.226562 55.957031 230.097656 56.007812 227.972656 C 56.0625 225.847656 56.164062 223.722656 56.320312 221.601562 C 56.476562 219.480469 56.683594 217.363281 56.941406 215.253906 C 57.199219 213.144531 57.507812 211.039062 57.867188 208.941406 C 58.230469 206.847656 58.640625 204.761719 59.101562 202.683594 C 59.5625 200.609375 60.070312 198.542969 60.632812 196.492188 C 61.191406 194.441406 61.804688 192.402344 62.460938 190.382812 C 63.121094 188.359375 63.828125 186.355469 64.585938 184.367188 C 65.34375 182.378906 66.144531 180.410156 66.996094 178.460938 C 67.847656 176.511719 68.746094 174.582031 69.691406 172.675781 C 70.636719 170.773438 71.628906 168.890625 72.664062 167.03125 C 73.699219 165.171875 74.777344 163.339844 75.902344 161.535156 C 77.027344 159.730469 78.195312 157.953125 79.40625 156.203125 C 80.617188 154.453125 81.867188 152.734375 83.164062 151.042969 C 84.457031 149.355469 85.789062 147.699219 87.164062 146.074219 C 88.539062 144.449219 89.949219 142.859375 91.402344 141.300781 C 92.851562 139.746094 94.339844 138.226562 95.863281 136.742188 C 97.390625 135.257812 98.949219 133.808594 100.542969 132.398438 C 102.136719 130.992188 103.765625 129.621094 105.425781 128.289062 C 107.085938 126.960938 108.777344 125.667969 110.5 124.421875 C 112.226562 123.171875 113.976562 121.964844 115.757812 120.800781 C 117.539062 119.636719 119.347656 118.515625 121.183594 117.4375 C 123.019531 116.359375 124.882812 115.328125 126.765625 114.339844 C 128.652344 113.355469 130.5625 112.414062 132.492188 111.519531 C 134.425781 110.621094 136.375 109.773438 138.347656 108.972656 C 140.320312 108.171875 142.3125 107.421875 144.320312 106.714844 C 146.328125 106.011719 148.351562 105.355469 150.394531 104.746094 C 152.433594 104.140625 154.488281 103.582031 156.554688 103.074219 C 158.621094 102.566406 160.703125 102.109375 162.789062 101.703125 C 164.878906 101.296875 166.980469 100.9375 169.085938 100.632812 C 171.191406 100.328125 173.304688 100.070312 175.425781 99.867188 C 177.542969 99.664062 179.667969 99.511719 181.792969 99.410156 C 183.921875 99.308594 186.046875 99.257812 188.175781 99.257812 L 219.085938 99.257812 L 219.085938 187.257812 L 188.175781 187.257812 C 186.804688 187.257812 185.433594 187.324219 184.066406 187.453125 C 182.703125 187.582031 181.34375 187.773438 179.996094 188.03125 C 178.648438 188.289062 177.3125 188.605469 175.996094 188.988281 C 174.675781 189.367188 173.378906 189.808594 172.101562 190.3125 C 170.824219 190.8125 169.574219 191.375 168.347656 191.992188 C 167.125 192.613281 165.929688 193.285156 164.769531 194.015625 C 163.605469 194.746094 162.480469 195.53125 161.394531 196.363281 C 160.304688 197.199219 159.257812 198.085938 158.25 199.019531 C 157.246094 199.953125 156.285156 200.929688 155.371094 201.953125 C 154.457031 202.976562 153.59375 204.039062 152.777344 205.140625 C 151.964844 206.246094 151.203125 207.382812 150.496094 208.558594 C 149.785156 209.734375 149.136719 210.9375 148.539062 212.175781 C 147.945312 213.410156 147.40625 214.671875 146.929688 215.957031 C 146.453125 217.242188 146.039062 218.546875 145.683594 219.871094 C 145.328125 221.195312 145.035156 222.535156 144.804688 223.886719 C 144.574219 225.238281 144.410156 226.597656 144.304688 227.964844 C 144.203125 229.332031 144.164062 230.699219 144.191406 232.070312 C 144.214844 233.441406 144.304688 234.808594 144.457031 236.171875 C 144.613281 237.535156 144.828125 238.886719 145.109375 240.230469 C 145.386719 241.570312 145.730469 242.898438 146.132812 244.207031 C 146.539062 245.519531 147.003906 246.808594 147.527344 248.074219 C 148.050781 249.339844 148.636719 250.582031 149.277344 251.792969 C 149.917969 253.007812 150.613281 254.1875 151.363281 255.335938 C 152.113281 256.480469 152.917969 257.59375 153.773438 258.664062 C 154.628906 259.738281 155.53125 260.765625 156.484375 261.753906 C 157.433594 262.742188 158.429688 263.6875 159.46875 264.582031 C 160.511719 265.476562 161.589844 266.320312 162.707031 267.117188 C 163.828125 267.910156 164.980469 268.652344 166.167969 269.335938 C 167.355469 270.023438 168.574219 270.652344 169.820312 271.226562 C 171.066406 271.800781 172.339844 272.3125 173.632812 272.769531 C 174.929688 273.222656 176.242188 273.617188 177.574219 273.945312 C 178.90625 274.277344 180.25 274.546875 181.609375 274.753906 Z M 181.609375 363.09375 " fill-opacity="1" fill-rule="evenodd"/><g clip-path="url(#4842973065)"><g clip-path="url(#3a1793bda5)"><path fill="#d9d9d9" d="M 13.523438 356.058594 L 60.386719 73.03125 L 261.601562 106.277344 L 214.738281 389.304688 Z M 13.523438 356.058594 " fill-opacity="1" fill-rule="nonzero"/></g></g></svg>